HIERARCHY
ROOT joint_0
{
	OFFSET 0.000000 0.000000 0.000000
	CHANNELS 6 Xposition Yposition Zposition Zrotation Yrotation Xrotation 
	JOINT joint_1
	{
		OFFSET 0.511002 1.944000 108.288940
		CHANNELS 3 Zrotation Yrotation Xrotation
		JOINT joint_2
		{
			OFFSET -9.074005 1.512993 98.440063
			CHANNELS 3 Zrotation Yrotation Xrotation
			JOINT joint_3
			{
				OFFSET -8.590996 1.815002 98.366943
				CHANNELS 3 Zrotation Yrotation Xrotation
				JOINT joint_4
				{
					OFFSET 2.489998 3.531998 136.462036
					CHANNELS 3 Zrotation Yrotation Xrotation
					JOINT joint_5
					{
						OFFSET 22.708000 2.955002 80.357056
						CHANNELS 3 Zrotation Yrotation Xrotation
						End Site
						{
							OFFSET 0.000000 0.000000 0.000000
						}
					}
				}
				JOINT joint_6
				{
					OFFSET 2.860001 -27.684998 77.234009
					CHANNELS 3 Zrotation Yrotation Xrotation
					JOINT joint_7
					{
						OFFSET 5.449997 -131.244003 -18.851929
						CHANNELS 3 Zrotation Yrotation Xrotation
						JOINT joint_8
						{
							OFFSET 35.757000 -24.661995 -264.074097
							CHANNELS 3 Zrotation Yrotation Xrotation
							JOINT joint_9
							{
								OFFSET 49.392001 -1.747002 -239.960938
								CHANNELS 3 Zrotation Yrotation Xrotation
								End Site
								{
									OFFSET 0.000000 0.000000 0.000000
								}
							}
						}
					}
				}
				JOINT joint_10
				{
					OFFSET -0.127998 31.625000 75.753052
					CHANNELS 3 Zrotation Yrotation Xrotation
					JOINT joint_11
					{
						OFFSET -5.618004 131.132996 -19.557007
						CHANNELS 3 Zrotation Yrotation Xrotation
						JOINT joint_12
						{
							OFFSET 46.488998 30.127991 -261.826050
							CHANNELS 3 Zrotation Yrotation Xrotation
							JOINT joint_13
							{
								OFFSET 66.021003 0.474030 -235.934937
								CHANNELS 3 Zrotation Yrotation Xrotation
								End Site
								{
									OFFSET 0.000000 0.000000 0.000000
								}
							}
						}
					}
				}
			}
		}
	}
	JOINT joint_14
	{
		OFFSET 15.887001 -78.871004 -94.561035
		CHANNELS 3 Zrotation Yrotation Xrotation
		JOINT joint_15
		{
			OFFSET -4.133003 6.714001 -473.615967
			CHANNELS 3 Zrotation Yrotation Xrotation
			JOINT joint_16
			{
				OFFSET -19.541000 5.340000 -399.613007
				CHANNELS 3 Zrotation Yrotation Xrotation
				JOINT joint_17
				{
					OFFSET 164.317001 41.657999 -73.195000
					CHANNELS 3 Zrotation Yrotation Xrotation
					End Site
					{
						OFFSET 0.000000 0.000000 0.000000
					}
				}
			}
		}
	}
	JOINT joint_18
	{
		OFFSET 6.513000 77.960991 -96.406982
		CHANNELS 3 Zrotation Yrotation Xrotation
		JOINT joint_19
		{
			OFFSET -10.660004 -8.518997 -473.485016
			CHANNELS 3 Zrotation Yrotation Xrotation
			JOINT joint_20
			{
				OFFSET -36.967995 -11.098999 -398.260010
				CHANNELS 3 Zrotation Yrotation Xrotation
				JOINT joint_21
				{
					OFFSET 166.067997 30.363998 -74.785000
					CHANNELS 3 Zrotation Yrotation Xrotation
					End Site
					{
						OFFSET 0.000000 0.000000 0.000000
					}
				}
			}
		}
	}
}
MOTION
Frames: 16
Frame Time: 0.016667
10.493000 92.681000 1076.729980 1.234814 4.490466 1.299497 0.750450 -0.449703 0.871752 0.660009 0.057543 -0.160540 0.686628 -0.087843 0.091329 0.537970 -0.044138 -1.896090 0.000000 0.000000 0.000000 2.674158 -0.696407 -0.484753 -0.539759 -0.280655 -1.784538 -0.191063 -2.835154 -0.989512 0.000000 0.000000 0.000000 -0.669422 -0.738681 -0.696201 -0.022581 -0.669837 -1.328369 0.270826 -1.748102 0.996869 0.000000 0.000000 0.000000 -2.653064 -2.653027 -2.372035 -2.495818 9.833706 -1.142239 -2.765163 -1.280406 -0.876188 0.000000 0.000000 0.000000 -4.385962 -3.376704 0.860806 -4.503355 7.558729 -2.324861 -4.497241 1.522876 -2.273701 0.000000 0.000000 0.000000 
11.794000 93.820000 1077.260990 1.237653 4.399756 1.360890 0.727466 -0.135533 0.853730 0.642651 0.019046 -0.160945 0.667080 -0.027001 0.087157 0.546998 0.063050 -1.940549 0.000000 0.000000 0.000000 2.702278 -0.756963 -0.504332 -0.571017 -0.336446 -1.918362 -0.153148 -3.172693 -0.806657 0.000000 0.000000 0.000000 -0.709088 -0.805837 -0.691609 -0.039335 -0.730935 -1.261362 0.173212 -1.874117 0.647914 0.000000 0.000000 0.000000 -2.573879 -3.260306 -2.500326 -2.383237 11.380931 -1.289514 -2.714901 -1.458350 -0.805618 0.000000 0.000000 0.000000 -4.354359 -3.483642 0.704460 -4.481421 8.056802 -2.362504 -4.482761 1.677626 -2.293316 0.000000 0.000000 0.000000 
13.028000 94.991000 1077.901000 1.211759 4.294536 1.436344 0.705352 0.232987 0.795826 0.629870 -0.034068 -0.145719 0.649210 0.064294 0.078646 0.553105 0.151741 -1.971374 0.000000 0.000000 0.000000 2.723037 -0.833363 -0.455845 -0.605152 -0.412656 -2.081095 -0.129439 -3.467314 -0.690364 0.000000 0.000000 0.000000 -0.750452 -0.880615 -0.722658 -0.049409 -0.794746 -1.144776 0.081476 -1.965767 0.319787 0.000000 0.000000 0.000000 -2.482059 -3.977250 -2.613892 -2.249084 13.140073 -1.511066 -2.654154 -1.551930 -0.751082 0.000000 0.000000 0.000000 -4.290735 -3.573014 0.512539 -4.425848 8.532672 -2.384412 -4.433912 1.905260 -2.310894 0.000000 0.000000 0.000000 
14.163000 96.201000 1078.588990 1.157296 4.179239 1.517966 0.683527 0.650420 0.715162 0.617053 -0.097746 -0.122656 0.629494 0.172832 0.067941 0.555529 0.230289 -1.986901 0.000000 0.000000 0.000000 2.744373 -0.920525 -0.373728 -0.639058 -0.501099 -2.250020 -0.115037 -3.730407 -0.617921 0.000000 0.000000 0.000000 -0.791282 -0.953676 -0.765913 -0.056153 -0.854943 -1.006311 -0.005635 -2.034670 0.007981 0.000000 0.000000 0.000000 -2.374823 -4.830935 -2.725223 -2.087597 15.150819 -1.764884 -2.575511 -1.561820 -0.709108 0.000000 0.000000 0.000000 -4.207248 -3.655533 0.303842 -4.347804 9.000387 -2.402703 -4.362359 2.176177 -2.326113 0.000000 0.000000 0.000000 
15.157000 97.397000 1079.245970 1.051300 4.063668 1.554328 0.666434 1.107824 0.698096 0.594950 -0.166728 -0.134263 0.603894 0.278426 0.063488 0.549052 0.320949 -1.971887 0.000000 0.000000 0.000000 2.754493 -1.027744 -0.315862 -0.659890 -0.609140 -2.350808 -0.114622 -3.929664 -0.613214 0.000000 0.000000 0.000000 -0.830173 -1.006292 -0.777214 -0.064495 -0.899345 -0.932230 -0.062522 -2.077831 -0.196540 0.000000 0.000000 0.000000 -2.230791 -5.961076 -2.823715 -1.867003 17.641456 -1.963853 -2.445250 -1.455612 -0.673136 0.000000 0.000000 0.000000 -4.131067 -3.738933 0.170671 -4.268756 9.468803 -2.464625 -4.293953 2.427562 -2.338628 0.000000 0.000000 0.000000 
15.953000 98.598000 1079.873050 0.881974 3.957883 1.563608 0.650535 1.598387 0.699024 0.559135 -0.234021 -0.159830 0.566553 0.373754 0.072108 0.529354 0.446290 -1.914575 0.000000 0.000000 0.000000 2.748340 -1.167585 -0.308425 -0.658848 -0.748267 -2.334733 -0.136925 -4.029298 -0.719991 0.000000 0.000000 0.000000 -0.852473 -1.030133 -0.728959 -0.079846 -0.926885 -0.993696 -0.067737 -2.089113 -0.217622 0.000000 0.000000 0.000000 -2.016352 -7.475380 -2.951611 -1.536159 20.776619 -2.072377 -2.196645 -1.015171 -0.669889 0.000000 0.000000 0.000000 -4.075390 -3.837189 0.108612 -4.197504 9.928109 -2.593225 -4.239831 2.682922 -2.357364 0.000000 0.000000 0.000000 
16.607000 99.787000 1080.468020 0.673124 3.860168 1.586450 0.637087 2.112315 0.639260 0.512159 -0.297375 -0.155685 0.514472 0.463632 0.087304 0.501490 0.586204 -1.830631 0.000000 0.000000 0.000000 2.731018 -1.326358 -0.324071 -0.644459 -0.906023 -2.250569 -0.172797 -4.067598 -0.893723 0.000000 0.000000 0.000000 -0.870402 -1.033932 -0.647313 -0.097892 -0.939728 -1.121440 -0.043088 -2.069587 -0.132983 0.000000 0.000000 0.000000 -1.786011 -9.262179 -3.134600 -1.138882 24.309365 -2.085788 -1.854045 -0.235003 -0.713401 0.000000 0.000000 0.000000 -4.033348 -3.951457 0.054069 -4.127980 10.383405 -2.755845 -4.189540 2.948210 -2.378720 0.000000 0.000000 0.000000 
17.249000 100.860000 1080.943970 0.434761 3.774334 1.598840 0.642627 2.614733 0.575499 0.459269 -0.351483 -0.147805 0.454611 0.545787 0.098917 0.473145 0.708364 -1.742970 0.000000 0.000000 0.000000 2.716716 -1.472049 -0.341060 -0.630326 -1.050175 -2.166986 -0.200774 -4.126269 -1.029557 0.000000 0.000000 0.000000 -0.918405 -1.020930 -0.563023 -0.108887 -0.927966 -1.194714 -0.027840 -2.030152 -0.082466 0.000000 0.000000 0.000000 -1.643538 -11.162703 -3.319588 -0.780600 27.897085 -2.001309 -1.541049 0.539621 -0.770678 0.000000 0.000000 0.000000 -3.996429 -4.081786 0.018262 -4.053365 10.868528 -2.920357 -4.131827 3.132225 -2.381047 0.000000 0.000000 0.000000 
17.823000 101.876000 1081.260990 0.110172 3.707638 1.568626 0.692063 3.083952 0.568492 0.407550 -0.376875 -0.164894 0.397634 0.610783 0.102301 0.446501 0.800518 -1.657266 0.000000 0.000000 0.000000 2.723433 -1.600663 -0.368827 -0.619271 -1.173742 -2.095537 -0.215179 -4.230730 -1.100087 0.000000 0.000000 0.000000 -1.019183 -0.978859 -0.485647 -0.106014 -0.872497 -1.168056 -0.042542 -2.004279 -0.139163 0.000000 0.000000 0.000000 -1.607319 -13.326886 -3.464382 -0.445339 31.857311 -1.835929 -1.280622 1.251103 -0.835893 0.000000 0.000000 0.000000 -3.955200 -4.236005 0.031397 -3.956008 11.404995 -3.093057 -4.048107 3.172602 -2.344171 0.000000 0.000000 0.000000 
18.385000 102.777000 1081.458980 -0.226053 3.649668 1.558151 0.762461 3.546621 0.494638 0.341725 -0.394839 -0.144752 0.320498 0.667418 0.102885 0.419441 0.876002 -1.568138 0.000000 0.000000 0.000000 2.732445 -1.716323 -0.395899 -0.608505 -1.284222 -2.028499 -0.221049 -4.353451 -1.130417 0.000000 0.000000 0.000000 -1.152557 -0.919017 -0.407567 -0.095524 -0.790810 -1.086214 -0.067093 -1.960858 -0.231126 0.000000 0.000000 0.000000 -1.681636 -15.597647 -3.612675 -0.138469 35.839647 -1.629928 -1.087114 2.019424 -0.945211 0.000000 0.000000 0.000000 -3.927849 -4.406437 0.028684 -3.858666 11.968234 -3.262692 -3.959917 3.147615 -2.292679 0.000000 0.000000 0.000000 
19.227000 103.284000 1081.577030 -0.432455 3.587764 1.591608 0.812207 4.021280 0.326976 0.254130 -0.442689 -0.077218 0.212526 0.731058 0.103197 0.393410 0.947773 -1.482857 0.000000 0.000000 0.000000 2.709211 -1.798498 -0.369527 -0.603562 -1.369527 -2.008730 -0.212315 -4.492957 -1.091020 0.000000 0.000000 0.000000 -1.279594 -0.878730 -0.340030 -0.087104 -0.727362 -0.955906 -0.081449 -1.810568 -0.286054 0.000000 0.000000 0.000000 -1.873920 -17.420538 -3.748444 0.009174 38.717273 -1.450032 -1.124215 2.354811 -1.038518 0.000000 0.000000 0.000000 -3.920713 -4.568233 -0.013707 -3.794284 12.532821 -3.390870 -3.901241 3.127467 -2.256466 0.000000 0.000000 0.000000 
20.399000 103.254000 1081.538940 -0.485064 3.519968 1.636501 0.826871 4.505615 0.132513 0.151873 -0.517544 -0.002950 0.085908 0.813436 0.093569 0.368304 1.009490 -1.400052 0.000000 0.000000 0.000000 2.632732 -1.841144 -0.242777 -0.611154 -1.429298 -2.075510 -0.178875 -4.695265 -0.932374 0.000000 0.000000 0.000000 -1.403475 -0.881630 -0.278080 -0.085541 -0.704281 -0.730603 -0.096213 -1.499873 -0.341135 0.000000 0.000000 0.000000 -2.173969 -18.636206 -3.829500 -0.071683 40.338019 -1.272289 -1.506751 1.601908 -0.990370 0.000000 0.000000 0.000000 -3.924960 -4.724998 -0.060088 -3.764913 13.128585 -3.465349 -3.875779 3.070922 -2.229892 0.000000 0.000000 0.000000 
21.852000 102.829000 1081.421020 -0.492693 3.475764 1.651848 0.826468 4.944151 -0.010041 0.062721 -0.589778 0.044459 -0.022882 0.903177 0.077957 0.344395 1.066112 -1.321251 0.000000 0.000000 0.000000 2.527044 -1.850501 -0.062159 -0.625317 -1.463612 -2.191224 -0.131366 -4.911025 -0.705497 0.000000 0.000000 0.000000 -1.521923 -0.903558 -0.229095 -0.085933 -0.698507 -0.452371 -0.101740 -1.080513 -0.361835 0.000000 0.000000 0.000000 -2.506774 -19.490212 -3.838284 -0.292666 41.039863 -1.097179 -2.093596 0.168047 -0.850701 0.000000 0.000000 0.000000 -3.920103 -4.888141 -0.061513 -3.742552 13.728902 -3.515346 -3.860750 2.982969 -2.203424 0.000000 0.000000 0.000000 
23.728000 102.164000 1081.490970 -0.556427 3.499365 1.608913 0.821673 5.255101 -0.029261 0.030399 -0.646486 0.047243 -0.061968 0.983890 0.071540 0.326258 1.145592 -1.266342 0.000000 0.000000 0.000000 2.429041 -1.823170 0.079675 -0.633213 -1.458692 -2.276432 -0.096446 -5.002222 -0.539030 0.000000 0.000000 0.000000 -1.591709 -0.912291 -0.221011 -0.083593 -0.688390 -0.259963 -0.046573 -0.616454 -0.165520 0.000000 0.000000 0.000000 -2.762675 -20.070205 -3.769623 -0.575866 40.529902 -1.016495 -2.676553 -1.015640 -0.782653 0.000000 0.000000 0.000000 -3.878548 -5.046551 0.023054 -3.702624 14.223624 -3.572140 -3.841829 2.978926 -2.192760 0.000000 0.000000 0.000000 
26.064000 101.314000 1081.931030 -0.703778 3.612422 1.488577 0.803187 5.435564 0.100876 0.073816 -0.707340 0.008363 -0.010998 1.063112 0.088693 0.315162 1.265872 -1.241851 0.000000 0.000000 0.000000 2.344548 -1.761380 0.154537 -0.632514 -1.415348 -2.333355 -0.079734 -4.919105 -0.459708 0.000000 0.000000 0.000000 -1.584900 -0.910513 -0.287649 -0.077776 -0.682178 -0.221494 0.111297 -0.089772 0.394699 0.000000 0.000000 0.000000 -2.955191 -20.283719 -3.601410 -0.992249 38.270655 -1.101486 -3.265849 -1.440408 -0.926168 0.000000 0.000000 0.000000 -3.776350 -5.189166 0.208980 -3.632890 14.539622 -3.629171 -3.810486 3.131119 -2.208616 0.000000 0.000000 0.000000 
28.823000 100.223000 1082.558960 -0.858648 3.774992 1.349550 0.764856 5.526714 0.274904 0.159293 -0.774746 -0.032176 0.087660 1.136515 0.117068 0.309871 1.406485 -1.240708 0.000000 0.000000 0.000000 2.269096 -1.664287 0.193715 -0.626390 -1.334200 -2.363001 -0.076593 -4.711996 -0.444538 0.000000 0.000000 0.000000 -1.530414 -0.899511 -0.407456 -0.064416 -0.673695 -0.258002 0.334633 0.479473 1.183164 0.000000 0.000000 0.000000 -3.139594 -20.123573 -3.408761 -1.538991 34.604776 -1.228967 -3.794174 -1.260180 -1.214252 0.000000 0.000000 0.000000 -3.646656 -5.316299 0.431980 -3.564038 14.749672 -3.679484 -3.789625 3.381957 -2.249265 0.000000 0.000000 0.000000 
